<svg id="nc3-svgpack-icon-hardware-3ds" viewBox="0 0 60 60"><path d="M60 6c0-3.3-2.7-6-6-6H6C2.7 0 0 2.7 0 6v23.6h60V6zM44.8 22.7c0 .7-.6 1.3-1.3 1.3h-27c-.7 0-1.3-.6-1.3-1.3V8.5c0-.7.6-1.3 1.3-1.3h26.9c.7 0 1.3.6 1.3 1.3l.1 14.2zM0 54c0 3.3 2.7 6 6 6h48c3.3 0 6-2.7 6-6V32H0v22zm53.5-14c.9 0 1.7.8 1.7 1.7 0 .9-.8 1.7-1.7 1.7-.9 0-1.7-.8-1.7-1.7-.1-.9.7-1.7 1.7-1.7M50 36.6c.9 0 1.7.8 1.7 1.7 0 .9-.8 1.7-1.7 1.7-.9 0-1.7-.8-1.7-1.7 0-1 .7-1.7 1.7-1.7m0 6.9c.9 0 1.7.8 1.7 1.7 0 .9-.8 1.7-1.7 1.7-.9 0-1.7-.8-1.7-1.7 0-.9.7-1.7 1.7-1.7M46.5 40c.9 0 1.7.8 1.7 1.7 0 .9-.8 1.7-1.7 1.7-.9 0-1.7-.8-1.7-1.7 0-.9.8-1.7 1.7-1.7m-27.3-1.1c0-.7.6-1.3 1.3-1.3h19c.7 0 1.3.5 1.3 1.3v13.5c0 .7-.6 1.3-1.3 1.3h-19c-.7 0-1.3-.5-1.3-1.3V38.9zm-9.4-1.1c2.2 0 4 1.8 4 4s-1.8 4-4 4-4-1.8-4-4 1.8-4 4-4"></path></svg>